# xmcd
#
# Track frame offsets: 
#        150
#        29406
#        41666
#        62712
#        74239
#        91980
#        110300
#        127825
#        145578
#
# Disc length: 2339 seconds
#
# Revision: 0
# Processed by: cddbd v1.5.2PL0 Copyright (c) Steve Scherf et al.
# Submitted via: ExactAudioCopy v0.99pb5
#
DISCID=7c092109
DTITLE=John Baldry - It Ain't Easy
DYEAR=1972
DGENRE=Rock
TTITLE0=Don't Try to Lay No Boogie-Woogie on the King of Rock and Roll
TTITLE1=Black Girl
TTITLE2=It Ain't Easy
TTITLE3=Morning, Morning
TTITLE4=I'm Ready
TTITLE5=Let's Burn Down the Cornfield
TTITLE6=Mr. Rubin
TTITLE7=Rock Me When He's Gone
TTITLE8=Flying
EXTD=
EXTT0=
EXTT1=
EXTT2=
EXTT3=
EXTT4=
EXTT5=
EXTT6=
EXTT7=
EXTT8=
PLAYORDER=
